<?xml version="1.0" encoding="iso-8859-1"?>

<!DOCTYPE svg PUBLIC "-//W3C//DTD SVG 1.1//EN" "http://www.w3.org/Graphics/SVG/1.1/DTD/svg11.dtd">
<!-- Uploaded to: SVG Repo, www.svgrepo.com, Generator: SVG Repo Mixer Tools -->
<svg height="800px" width="800px" version="1.1" id="_x34_" xmlns="http://www.w3.org/2000/svg" xmlns:xlink="http://www.w3.org/1999/xlink" 
	 viewBox="0 0 512 512"  xml:space="preserve">
<g>
	<path style="fill:#EEB248;" d="M427.244,308.272c0,22.872-3.919,44.845-11.243,65.34c-0.515,1.542-1.092,3.148-1.735,4.69
		c-1.156,3.084-2.441,6.168-3.79,9.252c-0.707,1.542-1.414,3.02-2.12,4.562c-2.121,4.433-4.433,8.866-6.81,13.171
		c-1.67,2.891-3.406,5.782-5.204,8.609c-1.8,2.763-3.662,5.526-5.59,8.288c-0.964,1.349-1.927,2.698-2.956,4.112
		c-1.992,2.57-3.918,5.076-5.91,7.517c-8.095,9.894-17.154,19.017-27.049,27.305c-2.441,2.056-4.946,4.112-7.516,6.039
		c-2.571,1.992-5.204,3.919-7.838,5.718c-2.634,1.863-5.333,3.598-8.031,5.333c-0.128,0.064-0.193,0.129-0.322,0.193
		c-2.698,1.671-5.396,3.341-8.159,4.883c-2.506,1.414-5.011,2.763-7.518,4.112c-0.385,0.193-0.771,0.385-1.156,0.578
		c-2.698,1.349-5.396,2.634-8.095,3.919c-0.256,0.129-0.513,0.257-0.771,0.321c-12.014,5.525-24.67,9.958-37.777,13.171
		c-6.552,1.671-13.235,3.02-20.045,3.983c-4.628,0.705-9.339,1.228-14.088,1.65c-1.644,0.149-3.285,0.292-4.94,0.404
		c-0.535,0.034-1.058,0.101-1.595,0.13v-0.069c-4.431,0.268-8.868,0.518-13.363,0.518c-34.758,0-67.524-7.903-96.5-21.973
		c-43.559-21.009-78.509-55.895-98.49-98.491C6.617,366.095,0,337.89,0,308.272c0-112.497,95.664-203.728,213.622-203.728
		c4.513,0,8.955,0.197,13.363,0.463v-0.013c0.129,0.013,0.249,0.017,0.373,0.026c0.364,0.022,0.741,0.013,1.104,0.038
		c6.489,0.385,12.85,1.092,19.145,2.12c2.249,0.257,4.433,0.643,6.618,1.092c1.131,0.191,2.212,0.502,3.329,0.716
		c3.396,0.654,6.77,1.378,10.098,2.175c13.107,3.212,25.763,7.645,37.777,13.171c2.956,1.349,5.911,2.763,8.866,4.24
		c0.385,0.193,0.771,0.385,1.156,0.578c2.506,1.349,5.012,2.698,7.518,4.112c2.763,1.542,5.461,3.212,8.159,4.883
		c0.129,0.064,0.194,0.128,0.322,0.193c2.698,1.735,5.397,3.469,8.031,5.332c2.634,1.799,5.267,3.726,7.838,5.718
		c2.57,1.927,5.075,3.983,7.516,6.039c9.895,8.288,18.954,17.411,27.049,27.305c1.992,2.441,3.918,4.947,5.91,7.517
		c1.029,1.413,1.992,2.763,2.956,4.112c1.927,2.763,3.79,5.525,5.59,8.288c1.798,2.827,3.534,5.718,5.204,8.609
		c2.377,4.305,4.689,8.738,6.81,13.171c0.706,1.542,1.413,3.02,2.12,4.562c1.349,3.084,2.633,6.168,3.79,9.252
		c0.643,1.542,1.221,3.148,1.735,4.69c1.735,4.754,3.212,9.573,4.497,14.456c0.385,1.285,0.707,2.57,1.027,3.855
		C425.252,276.341,427.244,292.082,427.244,308.272z"/>
	<g>
		<path style="fill:#73B431;" d="M306.587,83.471c-15.097,15.098-34.051,23.514-52.361,24.799c-0.129,0-0.321,0.064-0.45,0
			c-8.61,0.578-17.09-0.45-24.928-3.148c-0.129,0.064-0.257,0-0.385-0.064c-0.515-0.129-0.964-0.321-1.478-0.514l93.994-93.929
			l6.682-6.746c2.056,5.461,3.277,11.179,3.662,17.09C332.993,42.16,324.513,65.482,306.587,83.471z"/>
		<path style="fill:#82BA46;" d="M327.661,3.869l-6.682,6.746l-93.994,93.929c-9.316-24.928-1.864-56.602,21.072-79.602
			c17.989-17.925,41.311-26.406,62.513-24.735C316.482,0.592,322.2,1.813,327.661,3.869z"/>
	</g>
	<path style="fill:#E9AC34;" d="M226.98,104.978v406.586c111.749-6.582,200.264-95.056,200.264-203.294
		C427.244,200.034,338.729,111.559,226.98,104.978z"/>
</g>
</svg>