<?xml version="1.0" encoding="iso-8859-1"?>
<!-- Uploaded to: SVG Repo, www.svgrepo.com, Generator: SVG Repo Mixer Tools -->
<svg height="800px" width="800px" version="1.1" id="Layer_1" xmlns="http://www.w3.org/2000/svg" xmlns:xlink="http://www.w3.org/1999/xlink" 
	 viewBox="0 0 512.002 512.002" xml:space="preserve">
<g>
	<path style="fill:#F8E99B;" d="M368.529,188.483c0,55.933-45.342,101.275-101.275,101.275
		C267.254,233.826,312.595,188.483,368.529,188.483z"/>
	<path style="fill:#F8E99B;" d="M368.529,109.714c0,55.933-45.342,101.275-101.275,101.275
		C267.254,155.057,312.595,109.714,368.529,109.714z"/>
	<path style="fill:#F8E99B;" d="M256.001,8.439c-39.55,39.55-39.55,103.674,0,143.224C295.551,112.113,295.551,47.99,256.001,8.439z
		"/>
	<path style="fill:#F8E99B;" d="M368.529,267.253c0,55.933-45.342,101.275-101.275,101.275
		C267.254,312.596,312.595,267.253,368.529,267.253z"/>
	<path style="fill:#F8E99B;" d="M143.473,188.483c0,55.933,45.342,101.275,101.275,101.275
		C244.748,233.826,199.405,188.483,143.473,188.483z"/>
	<path style="fill:#F8E99B;" d="M143.473,109.714c0,55.933,45.342,101.275,101.275,101.275
		C244.748,155.057,199.405,109.714,143.473,109.714z"/>
	<path style="fill:#F8E99B;" d="M143.473,267.253c0,55.933,45.342,101.275,101.275,101.275
		C244.748,312.596,199.405,267.253,143.473,267.253z"/>
	<path style="fill:#F8E99B;" d="M368.529,346.022c0,55.933-45.342,101.275-101.275,101.275
		C267.254,391.365,312.595,346.022,368.529,346.022z"/>
	<path style="fill:#F8E99B;" d="M143.473,346.022c0,55.933,45.342,101.275,101.275,101.275
		C244.748,391.365,199.405,346.022,143.473,346.022z"/>
</g>
<g>
	<path style="fill:#F6E27D;" d="M345.99,191.004c-1.15,47.066-34.41,86.167-78.705,96.234c-0.02,0.837-0.031,1.678-0.031,2.521
		c55.933,0,101.275-45.342,101.275-101.275C360.781,188.483,353.239,189.356,345.99,191.004z"/>
	<path style="fill:#F6E27D;" d="M345.99,112.234c-1.15,47.066-34.41,86.167-78.705,96.234c-0.02,0.838-0.031,1.678-0.031,2.521
		c55.933,0,101.275-45.342,101.275-101.275C360.781,109.714,353.239,110.587,345.99,112.234z"/>
	<path style="fill:#F6E27D;" d="M256.001,8.439c-4.209,4.207-7.94,8.707-11.253,13.412c24.51,34.813,24.51,81.586,0,116.399
		c3.313,4.705,7.044,9.205,11.253,13.412C295.551,112.113,295.551,47.99,256.001,8.439z"/>
	<path style="fill:#F6E27D;" d="M345.99,269.773c-1.15,47.066-34.41,86.167-78.705,96.234c-0.02,0.837-0.031,1.678-0.031,2.521
		c55.933,0,101.275-45.342,101.275-101.275C360.781,267.253,353.239,268.126,345.99,269.773z"/>
	<path style="fill:#F6E27D;" d="M222.21,287.238c7.248,1.647,14.791,2.521,22.537,2.521c0-55.933-45.342-101.275-101.275-101.275
		c0,0.843,0.011,1.682,0.031,2.521C187.8,201.072,221.06,240.172,222.21,287.238z"/>
	<path style="fill:#F6E27D;" d="M222.21,208.468c7.248,1.647,14.791,2.521,22.537,2.521c0-55.933-45.342-101.275-101.275-101.275
		c0,0.843,0.011,1.682,0.031,2.521C187.8,122.302,221.06,161.402,222.21,208.468z"/>
	<path style="fill:#F6E27D;" d="M222.21,366.007c7.248,1.647,14.791,2.521,22.537,2.521c0-55.933-45.342-101.275-101.275-101.275
		c0,0.843,0.011,1.682,0.031,2.521C187.8,279.841,221.06,318.941,222.21,366.007z"/>
	<path style="fill:#F6E27D;" d="M345.99,348.543c-1.15,47.066-34.41,86.167-78.705,96.234c-0.02,0.837-0.031,1.678-0.031,2.521
		c55.933,0,101.275-45.342,101.275-101.275C360.781,346.022,353.239,346.895,345.99,348.543z"/>
	<path style="fill:#F6E27D;" d="M222.21,444.776c7.248,1.647,14.791,2.521,22.537,2.521c0-55.933-45.342-101.275-101.275-101.275
		c0,0.843,0.011,1.682,0.031,2.521C187.8,358.611,221.06,397.711,222.21,444.776z"/>
</g>
<path style="fill:#2E2D31;" d="M368.529,196.923c4.662,0,8.44-3.779,8.44-8.44c0-4.661-3.778-8.44-8.44-8.44
	c-6.275,0-12.425,0.537-18.414,1.554c8.86-10.186,15.934-22.088,20.608-35.313c1.553-4.394-0.751-9.216-5.145-10.769
	c-4.393-1.553-9.216,0.751-10.769,5.145c-12.091,34.212-43.059,58.049-78.696,61.466c4.477-47.047,44.216-83.973,92.416-83.973
	c4.662,0,8.44-3.779,8.44-8.44s-3.778-8.44-8.44-8.44c-48.376,0-89.535,31.474-104.088,75.018v-21.226
	c29.172-31.108,37.744-76.243,21.74-116.018c-1.74-4.326-6.656-6.417-10.98-4.68c-4.324,1.74-6.419,6.655-4.679,10.979
	c12.807,31.831,7.022,67.719-14.521,93.787c-30.107-36.433-28.116-90.643,5.968-124.728c3.296-3.296,3.296-8.64,0-11.935
	c-3.297-3.296-8.64-3.295-11.936,0c-41.928,41.927-42.732,109.608-2.472,152.559v21.262
	c-14.553-43.544-55.712-75.018-104.088-75.018c-4.661,0-8.44,3.779-8.44,8.44c0,27.476,10.153,52.624,26.903,71.892
	c-6.006-1.022-12.172-1.562-18.464-1.562c-4.661,0-8.44,3.779-8.44,8.44c0,27.476,10.153,52.624,26.903,71.892
	c-6.006-1.022-12.172-1.562-18.464-1.562c-4.661,0-8.44,3.779-8.44,8.44c0,27.476,10.153,52.624,26.903,71.892
	c-6.006-1.022-12.172-1.562-18.464-1.562c-4.661,0-8.44,3.779-8.44,8.44c0,60.497,49.217,109.715,109.715,109.715
	c0.988,0,1.932-0.179,2.813-0.491v48.315c0,4.661,3.779,8.44,8.44,8.44c4.662,0,8.44-3.779,8.44-8.44v-48.315
	c0.881,0.312,1.825,0.491,2.813,0.491c46.426,0,88.007-29.395,103.469-73.144c1.553-4.394-0.751-9.216-5.145-10.769
	c-4.393-1.555-9.216,0.751-10.769,5.145c-12.091,34.212-43.059,58.049-78.696,61.466c4.477-47.047,44.216-83.973,92.416-83.973
	c4.662,0,8.44-3.779,8.44-8.44c0-4.661-3.778-8.44-8.44-8.44c-6.275,0-12.425,0.537-18.414,1.554
	c8.86-10.186,15.934-22.088,20.608-35.313c1.553-4.394-0.751-9.216-5.145-10.769c-4.393-1.553-9.216,0.751-10.769,5.145
	c-12.091,34.212-43.059,58.049-78.696,61.466c4.477-47.047,44.216-83.973,92.416-83.973c4.662,0,8.44-3.779,8.44-8.44
	c0-4.661-3.778-8.44-8.44-8.44c-6.275,0-12.425,0.537-18.414,1.554c8.86-10.186,15.934-22.088,20.608-35.313
	c1.553-4.394-0.751-9.216-5.145-10.769c-4.393-1.554-9.216,0.751-10.769,5.145c-12.091,34.212-43.059,58.049-78.696,61.466
	C280.59,233.849,320.328,196.923,368.529,196.923z M247.561,333.831c-4.619-13.821-11.916-26.426-21.277-37.195
	c6.006,1.022,12.172,1.562,18.464,1.562c0.988,0,1.932-0.179,2.813-0.491V333.831z M247.561,218.938v36.124
	c-4.619-13.821-11.916-26.426-21.277-37.195c6.006,1.022,12.172,1.562,18.464,1.562C245.736,219.428,246.68,219.251,247.561,218.938
	z M235.889,202.131c-44.136-4.196-79.361-39.422-83.557-83.557C196.467,122.769,231.693,157.995,235.889,202.131z M235.889,280.9
	c-44.136-4.196-79.361-39.422-83.557-83.557C196.467,201.539,231.693,236.764,235.889,280.9z M235.889,359.669
	c-44.136-4.196-79.361-39.422-83.557-83.557C196.467,280.308,231.693,315.534,235.889,359.669z M152.331,354.881
	c44.136,4.196,79.361,39.422,83.557,83.557C191.753,434.243,156.527,399.017,152.331,354.881z M226.284,375.405
	c6.006,1.022,12.172,1.562,18.464,1.562c0.988,0,1.932-0.179,2.813-0.491V412.6C242.942,398.78,235.645,386.174,226.284,375.405z
	 M285.741,375.378c-9.372,10.775-16.678,23.389-21.3,37.222v-36.124c0.881,0.312,1.825,0.491,2.813,0.491
	C273.524,376.967,279.7,376.414,285.741,375.378z M285.741,296.609c-9.372,10.775-16.678,23.389-21.3,37.222v-36.124
	c0.881,0.312,1.825,0.491,2.813,0.491C273.524,298.198,279.7,297.644,285.741,296.609z M264.44,255.061v-36.124
	c0.881,0.312,1.825,0.491,2.813,0.491c6.27,0,12.447-0.554,18.487-1.589C276.368,228.614,269.063,241.229,264.44,255.061z"/>
</svg>